<svg width="1024" height="1067" viewBox="0 0 1024 1067" fill="none" xmlns="http://www.w3.org/2000/svg">
<g clip-path="url(#clip0_275_3)">
<rect width="1024" height="1067" fill="white"/>
<ellipse cx="751.5" cy="112" rx="232.5" ry="228" fill="#93B6EE"/>
<ellipse cx="79.5" cy="659" rx="232.5" ry="228" fill="#84B750"/>
<path d="M500.5 521C500.5 628.376 411.559 716.5 300.5 716.5C189.441 716.5 100.5 628.376 100.5 521C100.5 413.624 189.441 325.5 300.5 325.5C411.559 325.5 500.5 413.624 500.5 521Z" stroke="#93B6EE" stroke-width="65"/>
<path d="M1174 193.5C1174 315.12 1073.31 415 947.5 415C821.69 415 721 315.12 721 193.5C721 71.8798 821.69 -28 947.5 -28C1073.31 -28 1174 71.8798 1174 193.5Z" stroke="#FFAA47" stroke-width="80"/>
<path d="M602.047 35.2031H599.609C599.516 34.6823 599.341 34.224 599.086 33.8281C598.831 33.4323 598.518 33.0964 598.148 32.8203C597.779 32.5443 597.365 32.3359 596.906 32.1953C596.453 32.0547 595.971 31.9844 595.461 31.9844C594.539 31.9844 593.714 32.2161 592.984 32.6797C592.26 33.1432 591.688 33.8229 591.266 34.7187C590.849 35.6146 590.641 36.7083 590.641 38C590.641 39.3021 590.849 40.401 591.266 41.2969C591.688 42.1927 592.263 42.8698 592.992 43.3281C593.721 43.7865 594.542 44.0156 595.453 44.0156C595.958 44.0156 596.438 43.9479 596.891 43.8125C597.349 43.6719 597.763 43.4661 598.133 43.1953C598.503 42.9245 598.815 42.5937 599.07 42.2031C599.331 41.8073 599.51 41.3542 599.609 40.8438L602.047 40.8516C601.917 41.638 601.664 42.362 601.289 43.0234C600.919 43.6797 600.443 44.2474 599.859 44.7266C599.281 45.2005 598.62 45.5677 597.875 45.8281C597.13 46.0885 596.318 46.2187 595.438 46.2187C594.052 46.2187 592.818 45.8906 591.734 45.2344C590.651 44.5729 589.797 43.6276 589.172 42.3984C588.552 41.1693 588.242 39.7031 588.242 38C588.242 36.2917 588.555 34.8255 589.18 33.6016C589.805 32.3724 590.659 31.4297 591.742 30.7734C592.826 30.112 594.057 29.7812 595.438 29.7812C596.286 29.7812 597.078 29.9036 597.813 30.1484C598.552 30.388 599.216 30.7422 599.805 31.2109C600.393 31.6745 600.88 32.2422 601.266 32.9141C601.651 33.5807 601.911 34.3437 602.047 35.2031ZM608.24 46.2656C607.48 46.2656 606.792 46.125 606.178 45.8437C605.563 45.5573 605.076 45.1432 604.717 44.6016C604.363 44.0599 604.186 43.3958 604.186 42.6094C604.186 41.9323 604.316 41.375 604.576 40.9375C604.837 40.5 605.188 40.1536 605.631 39.8984C606.074 39.6432 606.568 39.4505 607.115 39.3203C607.662 39.1901 608.219 39.0911 608.787 39.0234C609.506 38.9401 610.089 38.8724 610.537 38.8203C610.985 38.763 611.311 38.6719 611.514 38.5469C611.717 38.4219 611.818 38.2187 611.818 37.9375V37.8828C611.818 37.2005 611.626 36.6719 611.24 36.2969C610.86 35.9219 610.292 35.7344 609.537 35.7344C608.751 35.7344 608.131 35.9089 607.678 36.2578C607.23 36.6016 606.92 36.9844 606.748 37.4062L604.553 36.9062C604.813 36.1771 605.193 35.5885 605.693 35.1406C606.199 34.6875 606.779 34.3594 607.436 34.1562C608.092 33.9479 608.782 33.8438 609.506 33.8438C609.985 33.8438 610.493 33.901 611.029 34.0156C611.571 34.125 612.076 34.3281 612.545 34.625C613.019 34.9219 613.407 35.3464 613.709 35.8984C614.011 36.4453 614.162 37.1563 614.162 38.0313V46H611.881V44.3594H611.787C611.636 44.6615 611.41 44.9583 611.107 45.25C610.805 45.5417 610.417 45.7839 609.943 45.9766C609.469 46.1693 608.902 46.2656 608.24 46.2656ZM608.748 44.3906C609.394 44.3906 609.946 44.263 610.404 44.0078C610.868 43.7526 611.219 43.4193 611.459 43.0078C611.704 42.5911 611.826 42.1458 611.826 41.6719V40.125C611.743 40.2083 611.581 40.2865 611.342 40.3594C611.107 40.4271 610.839 40.487 610.537 40.5391C610.235 40.5859 609.941 40.6302 609.654 40.6719C609.368 40.7083 609.128 40.7396 608.936 40.7656C608.482 40.8229 608.068 40.9193 607.693 41.0547C607.324 41.1901 607.027 41.3854 606.803 41.6406C606.584 41.8906 606.475 42.224 606.475 42.6406C606.475 43.2187 606.688 43.6562 607.115 43.9531C607.542 44.2448 608.087 44.3906 608.748 44.3906ZM621.766 46.2344C620.797 46.2344 619.932 45.987 619.172 45.4922C618.417 44.9922 617.823 44.2812 617.391 43.3594C616.964 42.4323 616.75 41.3203 616.75 40.0234C616.75 38.7266 616.966 37.6172 617.398 36.6953C617.836 35.7734 618.435 35.0677 619.195 34.5781C619.956 34.0885 620.818 33.8438 621.781 33.8438C622.526 33.8438 623.125 33.9688 623.578 34.2187C624.036 34.4635 624.391 34.75 624.641 35.0781C624.896 35.4062 625.094 35.6953 625.234 35.9453H625.375V30H627.711V46H625.43V44.1328H625.234C625.094 44.388 624.891 44.6797 624.625 45.0078C624.365 45.3359 624.005 45.6224 623.547 45.8672C623.089 46.112 622.495 46.2344 621.766 46.2344ZM622.281 44.2422C622.953 44.2422 623.521 44.0651 623.984 43.7109C624.453 43.3516 624.807 42.8542 625.047 42.2188C625.292 41.5833 625.414 40.8437 625.414 40C625.414 39.1667 625.294 38.4375 625.055 37.8125C624.815 37.1875 624.464 36.7005 624 36.3516C623.536 36.0026 622.964 35.8281 622.281 35.8281C621.578 35.8281 620.992 36.0104 620.523 36.375C620.055 36.7396 619.701 37.237 619.461 37.8672C619.227 38.4974 619.109 39.2083 619.109 40C619.109 40.8021 619.229 41.5234 619.469 42.1641C619.708 42.8047 620.063 43.3125 620.531 43.6875C621.005 44.0573 621.589 44.2422 622.281 44.2422ZM634.537 46.2656C633.777 46.2656 633.089 46.125 632.475 45.8437C631.86 45.5573 631.373 45.1432 631.014 44.6016C630.66 44.0599 630.482 43.3958 630.482 42.6094C630.482 41.9323 630.613 41.375 630.873 40.9375C631.133 40.5 631.485 40.1536 631.928 39.8984C632.37 39.6432 632.865 39.4505 633.412 39.3203C633.959 39.1901 634.516 39.0911 635.084 39.0234C635.803 38.9401 636.386 38.8724 636.834 38.8203C637.282 38.763 637.607 38.6719 637.811 38.5469C638.014 38.4219 638.115 38.2187 638.115 37.9375V37.8828C638.115 37.2005 637.923 36.6719 637.537 36.2969C637.157 35.9219 636.589 35.7344 635.834 35.7344C635.048 35.7344 634.428 35.9089 633.975 36.2578C633.527 36.6016 633.217 36.9844 633.045 37.4062L630.85 36.9062C631.11 36.1771 631.49 35.5885 631.99 35.1406C632.495 34.6875 633.076 34.3594 633.732 34.1562C634.389 33.9479 635.079 33.8438 635.803 33.8438C636.282 33.8438 636.79 33.901 637.326 34.0156C637.868 34.125 638.373 34.3281 638.842 34.625C639.316 34.9219 639.704 35.3464 640.006 35.8984C640.308 36.4453 640.459 37.1563 640.459 38.0313V46H638.178V44.3594H638.084C637.933 44.6615 637.706 44.9583 637.404 45.25C637.102 45.5417 636.714 45.7839 636.24 45.9766C635.766 46.1693 635.199 46.2656 634.537 46.2656ZM635.045 44.3906C635.691 44.3906 636.243 44.263 636.701 44.0078C637.165 43.7526 637.516 43.4193 637.756 43.0078C638.001 42.5911 638.123 42.1458 638.123 41.6719V40.125C638.04 40.2083 637.878 40.2865 637.639 40.3594C637.404 40.4271 637.136 40.487 636.834 40.5391C636.532 40.5859 636.238 40.6302 635.951 40.6719C635.665 40.7083 635.425 40.7396 635.232 40.7656C634.779 40.8229 634.365 40.9193 633.99 41.0547C633.62 41.1901 633.324 41.3854 633.1 41.6406C632.881 41.8906 632.771 42.224 632.771 42.6406C632.771 43.2187 632.985 43.6562 633.412 43.9531C633.839 44.2448 634.383 44.3906 635.045 44.3906ZM652.563 36.9297L650.445 37.3047C650.357 37.0339 650.216 36.776 650.023 36.5312C649.836 36.2865 649.581 36.0859 649.258 35.9297C648.935 35.7734 648.531 35.6953 648.047 35.6953C647.385 35.6953 646.833 35.8437 646.391 36.1406C645.948 36.4323 645.727 36.8099 645.727 37.2734C645.727 37.6745 645.875 37.9974 646.172 38.2422C646.469 38.487 646.948 38.6875 647.609 38.8437L649.516 39.2812C650.62 39.5365 651.443 39.9297 651.984 40.4609C652.526 40.9922 652.797 41.6823 652.797 42.5313C652.797 43.25 652.589 43.8906 652.172 44.4531C651.76 45.0104 651.185 45.4479 650.445 45.7656C649.711 46.0833 648.859 46.2422 647.891 46.2422C646.547 46.2422 645.451 45.9557 644.602 45.3828C643.753 44.8047 643.232 43.9844 643.039 42.9219L645.297 42.5781C645.438 43.1667 645.727 43.612 646.164 43.9141C646.602 44.2109 647.172 44.3594 647.875 44.3594C648.641 44.3594 649.253 44.2005 649.711 43.8828C650.169 43.5599 650.398 43.1667 650.398 42.7031C650.398 42.3281 650.258 42.013 649.977 41.7578C649.701 41.5026 649.276 41.3099 648.703 41.1797L646.672 40.7344C645.552 40.4792 644.724 40.0729 644.188 39.5156C643.656 38.9583 643.391 38.2526 643.391 37.3984C643.391 36.6901 643.589 36.0703 643.984 35.5391C644.38 35.0078 644.927 34.5937 645.625 34.2969C646.323 33.9948 647.122 33.8438 648.023 33.8438C649.32 33.8438 650.341 34.125 651.086 34.6875C651.831 35.2448 652.323 35.9922 652.563 36.9297ZM660.967 34V35.875H654.412V34H660.967ZM656.17 31.125H658.506V42.4766C658.506 42.9297 658.574 43.2708 658.709 43.5C658.844 43.724 659.019 43.8776 659.232 43.9609C659.451 44.0391 659.688 44.0781 659.943 44.0781C660.131 44.0781 660.295 44.0651 660.436 44.0391C660.576 44.013 660.686 43.9922 660.764 43.9766L661.186 45.9062C661.05 45.9583 660.857 46.0104 660.607 46.0625C660.357 46.1198 660.045 46.151 659.67 46.1563C659.055 46.1667 658.482 46.0573 657.951 45.8281C657.42 45.599 656.99 45.2448 656.662 44.7656C656.334 44.2865 656.17 43.6849 656.17 42.9609V31.125ZM663.551 46V34H665.809V35.9062H665.934C666.152 35.2604 666.538 34.7526 667.09 34.3828C667.647 34.0078 668.277 33.8203 668.98 33.8203C669.126 33.8203 669.298 33.8255 669.496 33.8359C669.699 33.8464 669.858 33.8594 669.973 33.875V36.1094C669.879 36.0833 669.712 36.0547 669.473 36.0234C669.233 35.987 668.993 35.9687 668.754 35.9687C668.202 35.9687 667.71 36.0859 667.277 36.3203C666.85 36.5495 666.512 36.8698 666.262 37.2812C666.012 37.6875 665.887 38.151 665.887 38.6719V46H663.551ZM675.379 46.2656C674.618 46.2656 673.931 46.125 673.316 45.8437C672.702 45.5573 672.215 45.1432 671.855 44.6016C671.501 44.0599 671.324 43.3958 671.324 42.6094C671.324 41.9323 671.454 41.375 671.715 40.9375C671.975 40.5 672.327 40.1536 672.77 39.8984C673.212 39.6432 673.707 39.4505 674.254 39.3203C674.801 39.1901 675.358 39.0911 675.926 39.0234C676.645 38.9401 677.228 38.8724 677.676 38.8203C678.124 38.763 678.449 38.6719 678.652 38.5469C678.855 38.4219 678.957 38.2187 678.957 37.9375V37.8828C678.957 37.2005 678.764 36.6719 678.379 36.2969C677.999 35.9219 677.431 35.7344 676.676 35.7344C675.889 35.7344 675.27 35.9089 674.816 36.2578C674.368 36.6016 674.059 36.9844 673.887 37.4062L671.691 36.9062C671.952 36.1771 672.332 35.5885 672.832 35.1406C673.337 34.6875 673.918 34.3594 674.574 34.1562C675.23 33.9479 675.921 33.8438 676.645 33.8438C677.124 33.8438 677.632 33.901 678.168 34.0156C678.71 34.125 679.215 34.3281 679.684 34.625C680.158 34.9219 680.546 35.3464 680.848 35.8984C681.15 36.4453 681.301 37.1563 681.301 38.0313V46H679.02V44.3594H678.926C678.775 44.6615 678.548 44.9583 678.246 45.25C677.944 45.5417 677.556 45.7839 677.082 45.9766C676.608 46.1693 676.04 46.2656 675.379 46.2656ZM675.887 44.3906C676.533 44.3906 677.085 44.263 677.543 44.0078C678.007 43.7526 678.358 43.4193 678.598 43.0078C678.842 42.5911 678.965 42.1458 678.965 41.6719V40.125C678.882 40.2083 678.72 40.2865 678.48 40.3594C678.246 40.4271 677.978 40.487 677.676 40.5391C677.374 40.5859 677.079 40.6302 676.793 40.6719C676.507 40.7083 676.267 40.7396 676.074 40.7656C675.621 40.8229 675.207 40.9193 674.832 41.0547C674.462 41.1901 674.165 41.3854 673.941 41.6406C673.723 41.8906 673.613 42.224 673.613 42.6406C673.613 43.2187 673.827 43.6562 674.254 43.9531C674.681 44.2448 675.225 44.3906 675.887 44.3906ZM684.412 46V34H686.67V35.9062H686.795C687.014 35.2604 687.399 34.7526 687.951 34.3828C688.508 34.0078 689.139 33.8203 689.842 33.8203C689.988 33.8203 690.16 33.8255 690.357 33.8359C690.561 33.8464 690.719 33.8594 690.834 33.875V36.1094C690.74 36.0833 690.574 36.0547 690.334 36.0234C690.094 35.987 689.855 35.9687 689.615 35.9687C689.063 35.9687 688.571 36.0859 688.139 36.3203C687.712 36.5495 687.373 36.8698 687.123 37.2812C686.873 37.6875 686.748 38.151 686.748 38.6719V46H684.412Z" fill="#353535"/>
<path d="M587 50.375H603.18V51.875H587V50.375ZM603.178 50.375H670.434V51.875H603.178V50.375ZM670.316 50.375H691.295V51.875H670.316V50.375Z" fill="#353535"/>
<path d="M716.758 46V30H726.789V32.0781H719.172V36.9531H726.266V39.0234H719.172V43.9219H726.883V46H716.758ZM732.162 38.875V46H729.826V34H732.068V35.9531H732.217C732.493 35.3177 732.925 34.8073 733.514 34.4219C734.107 34.0365 734.855 33.8438 735.756 33.8438C736.574 33.8438 737.29 34.0156 737.904 34.3594C738.519 34.6979 738.995 35.2031 739.334 35.875C739.673 36.5469 739.842 37.3776 739.842 38.3672V46H737.506V38.6484C737.506 37.7786 737.279 37.099 736.826 36.6094C736.373 36.1146 735.751 35.8672 734.959 35.8672C734.417 35.8672 733.936 35.9844 733.514 36.2187C733.097 36.4531 732.766 36.7969 732.521 37.25C732.282 37.6979 732.162 38.2396 732.162 38.875ZM748.576 34V35.875H742.021V34H748.576ZM743.779 31.125H746.115V42.4766C746.115 42.9297 746.183 43.2708 746.318 43.5C746.454 43.724 746.628 43.8776 746.842 43.9609C747.061 44.0391 747.298 44.0781 747.553 44.0781C747.74 44.0781 747.904 44.0651 748.045 44.0391C748.186 44.013 748.295 43.9922 748.373 43.9766L748.795 45.9062C748.66 45.9583 748.467 46.0104 748.217 46.0625C747.967 46.1198 747.654 46.151 747.279 46.1563C746.665 46.1667 746.092 46.0573 745.561 45.8281C745.029 45.599 744.6 45.2448 744.271 44.7656C743.943 44.2865 743.779 43.6849 743.779 42.9609V31.125ZM751.16 46V34H753.418V35.9062H753.543C753.762 35.2604 754.147 34.7526 754.699 34.3828C755.257 34.0078 755.887 33.8203 756.59 33.8203C756.736 33.8203 756.908 33.8255 757.105 33.8359C757.309 33.8464 757.467 33.8594 757.582 33.875V36.1094C757.488 36.0833 757.322 36.0547 757.082 36.0234C756.842 35.987 756.603 35.9687 756.363 35.9687C755.811 35.9687 755.319 36.0859 754.887 36.3203C754.46 36.5495 754.121 36.8698 753.871 37.2812C753.621 37.6875 753.496 38.151 753.496 38.6719V46H751.16ZM764.346 46.2422C763.163 46.2422 762.145 45.9896 761.291 45.4844C760.442 44.974 759.786 44.2578 759.322 43.3359C758.864 42.4089 758.635 41.3229 758.635 40.0781C758.635 38.849 758.864 37.7656 759.322 36.8281C759.786 35.8906 760.432 35.1589 761.26 34.6328C762.093 34.1068 763.067 33.8438 764.182 33.8438C764.859 33.8438 765.515 33.9557 766.15 34.1797C766.786 34.4036 767.356 34.7552 767.861 35.2344C768.367 35.7135 768.765 36.3359 769.057 37.1016C769.348 37.862 769.494 38.7865 769.494 39.875V40.7031H759.955V38.9531H767.205C767.205 38.3385 767.08 37.7943 766.83 37.3203C766.58 36.8411 766.229 36.4635 765.775 36.1875C765.327 35.9115 764.801 35.7734 764.197 35.7734C763.541 35.7734 762.968 35.9349 762.479 36.2578C761.994 36.5755 761.619 36.9922 761.354 37.5078C761.093 38.0182 760.963 38.5729 760.963 39.1719V40.5391C760.963 41.3411 761.104 42.0234 761.385 42.5859C761.671 43.1484 762.07 43.5781 762.58 43.875C763.09 44.1667 763.687 44.3125 764.369 44.3125C764.812 44.3125 765.215 44.25 765.58 44.125C765.945 43.9948 766.26 43.8021 766.525 43.5469C766.791 43.2917 766.994 42.9766 767.135 42.6016L769.346 43C769.169 43.651 768.851 44.2214 768.393 44.7109C767.939 45.1953 767.369 45.5729 766.682 45.8437C765.999 46.1094 765.221 46.2422 764.346 46.2422Z" fill="#353535"/>
<path d="M800.859 18.6308C804.094 18.6308 806.717 17.538 806.717 16.1899C806.717 14.8419 804.094 13.749 800.859 13.749C797.623 13.749 795 14.8419 795 16.1899C795 17.538 797.623 18.6308 800.859 18.6308Z" stroke="#353535" stroke-width="2" stroke-linecap="round" stroke-linejoin="round"/>
<path d="M808.182 19.2413L804.996 17.9141" stroke="#353535" stroke-width="2" stroke-linecap="round" stroke-linejoin="round"/>
<ellipse cx="751.5" cy="112" rx="232.5" ry="228" fill="#93B6EE"/>
<path d="M1174 193.5C1174 315.12 1073.31 415 947.5 415C821.69 415 721 315.12 721 193.5C721 71.8798 821.69 -28 947.5 -28C1073.31 -28 1174 71.8798 1174 193.5Z" stroke="#84B750" stroke-width="80"/>
</g>
<defs>
<clipPath id="clip0_275_3">
<rect width="1024" height="1067" fill="white"/>
</clipPath>
</defs>
</svg>
