<svg width="1024" height="2561" viewBox="0 0 1024 2561" fill="none" xmlns="http://www.w3.org/2000/svg">
<g clip-path="url(#clip0_862_67)">
<rect width="1024" height="2561" fill="white"/>
<ellipse cx="751.5" cy="112" rx="232.5" ry="228" fill="#93B6EE"/>
<ellipse cx="79.5" cy="763" rx="232.5" ry="228" fill="#84B750"/>
<path d="M500.5 625C500.5 732.376 411.559 820.5 300.5 820.5C189.441 820.5 100.5 732.376 100.5 625C100.5 517.624 189.441 429.5 300.5 429.5C411.559 429.5 500.5 517.624 500.5 625Z" stroke="#93B6EE" stroke-width="65"/>
<path d="M1174 193.5C1174 315.12 1073.31 415 947.5 415C821.69 415 721 315.12 721 193.5C721 71.8798 821.69 -28 947.5 -28C1073.31 -28 1174 71.8798 1174 193.5Z" stroke="#84B750" stroke-width="80"/>
</g>
<defs>
<clipPath id="clip0_862_67">
<rect width="1024" height="2561" fill="white"/>
</clipPath>
</defs>
</svg>
