<svg width="50" height="49" viewBox="0 0 50 49" fill="none" xmlns="http://www.w3.org/2000/svg">
<path d="M26.5593 0.797752L26.5005 0.810615C25.344 1.06362 24.1464 1.06362 22.9898 0.810615C20.6387 0.296301 18.1581 0.855795 16.242 2.31207C15.4385 2.92272 14.5215 3.38846 13.5533 3.67322L12.5385 3.97168C10.4192 4.59503 8.65431 6.07134 7.66636 8.04726L7.59854 8.1829C7.09066 9.19867 6.35326 10.0822 5.44473 10.7636C3.72331 12.0547 2.65763 14.0382 2.53127 16.1863L2.48363 16.9962C2.42116 18.0581 2.17094 19.1005 1.74458 20.0751L1.58715 20.4349C0.578192 22.7411 0.610024 25.3699 1.67453 27.6511C2.14662 28.6627 2.42101 29.7552 2.48293 30.8698L2.52206 31.5742C2.65544 33.9751 3.74401 36.2227 5.54501 37.8159L6.10877 38.3147C6.81033 38.9353 7.41071 39.6616 7.88822 40.4674L8.26242 41.0989C9.30514 42.8585 11.0353 44.1027 13.0353 44.5313C14.1154 44.7628 15.1293 45.2352 16.0013 45.9135L16.2759 46.127C18.182 47.6095 20.6482 48.1684 23.0071 47.6524C24.1523 47.4019 25.338 47.4019 26.4832 47.6524L26.5634 47.6699C28.8853 48.1779 31.3138 47.6914 33.261 46.3284L34.0846 45.7519C34.9054 45.1773 35.8228 44.7547 36.7929 44.5044L37.0101 44.4483C39.2935 43.8591 41.1939 42.2798 42.1911 40.1428L42.2212 40.0784C42.7364 38.9743 43.5095 38.0102 44.4752 37.2674C46.3461 35.8282 47.4424 33.6017 47.4424 31.2412V30.9602C47.4424 29.7893 47.699 28.6326 48.1942 27.5716L48.3139 27.3151C49.2727 25.2605 49.2405 22.8805 48.2266 20.8526C47.7109 19.8212 47.4424 18.684 47.4424 17.531V17.3272C47.4424 14.8885 46.3687 12.5734 44.5071 10.9982L44.3024 10.825C43.4455 10.0999 42.734 9.21875 42.2058 8.22828L42.1412 8.10717C40.9529 5.87914 38.877 4.25829 36.4273 3.64586C35.3609 3.37924 34.3528 2.91803 33.4538 2.2854L33.2591 2.14837C31.3137 0.779381 28.8832 0.289407 26.5593 0.797752Z" fill="#93B6EE"/>
<path d="M25.0864 44.8709C36.2957 44.8709 45.3825 35.784 45.3825 24.5746C45.3825 13.3653 36.2957 4.27832 25.0864 4.27832C13.8772 4.27832 4.79028 13.3653 4.79028 24.5746C4.79028 35.784 13.8772 44.8709 25.0864 44.8709Z" fill="#93B6EE" stroke="white"/>
<path d="M25.0865 43.1648C35.3532 43.1648 43.6761 34.8419 43.6761 24.5751C43.6761 14.3083 35.3532 5.98535 25.0865 5.98535C14.8198 5.98535 6.49695 14.3083 6.49695 24.5751C6.49695 34.8419 14.8198 43.1648 25.0865 43.1648Z" fill="#93B6EE" stroke="white"/>
<rect x="19.7842" y="22.002" width="1.7305" height="7.19157" rx="0.86525" fill="white" stroke="white"/>
<rect x="19.7842" y="30.5361" width="1.7305" height="7.19157" rx="0.86525" fill="white" stroke="white"/>
<rect x="24.5625" y="30.5361" width="1.7305" height="7.19157" rx="0.86525" fill="white" stroke="white"/>
<rect x="24.5625" y="22.002" width="1.7305" height="7.19157" rx="0.86525" fill="white" stroke="white"/>
<rect x="29.3409" y="30.5361" width="1.7305" height="7.19157" rx="0.86525" fill="white" stroke="white"/>
<rect x="24.5625" y="13.4697" width="1.7305" height="7.19157" rx="0.86525" fill="white" stroke="white"/>
<path d="M36.4082 19.4675L36.3892 18.4316L35.5784 18.5012C34.7501 18.5723 33.9356 18.7574 33.1581 19.0513L32.3293 19.4649C31.8939 19.7291 31.5039 20.0615 31.1741 20.4495L31.044 20.6025C30.628 21.0918 30.2939 21.6452 30.0546 22.2412L29.9686 22.4553C29.8872 22.6582 29.8203 22.8667 29.7685 23.0791C29.6507 23.5627 29.6123 24.0623 29.6548 24.5582L29.7656 25.8491L31.4697 25.596C32.1489 25.4952 32.8049 25.275 33.4073 24.9456C33.7896 24.7366 34.1471 24.4854 34.4733 24.1966L34.4921 24.1801C35.0055 23.7257 35.4378 23.1872 35.7705 22.5878L35.8666 22.4147C36.2426 21.4785 36.4268 20.4762 36.4082 19.4675Z" fill="white"/>
<path d="M16.9066 10.8842L15.871 10.8564L15.9038 11.6696C15.9374 12.5002 16.0856 13.3222 16.3441 14.1123L16.7198 14.9589C16.964 15.4057 17.2785 15.8103 17.6512 16.1573L17.7982 16.2942C18.2682 16.7319 18.8059 17.0906 19.3905 17.3566L19.6005 17.4522C19.7995 17.5428 20.0048 17.619 20.2146 17.6803C20.6924 17.8199 21.1897 17.8808 21.6871 17.8607L22.9816 17.8083L22.8058 16.0945C22.7357 15.4115 22.5454 14.7462 22.2435 14.1295C22.052 13.7382 21.8172 13.3696 21.5435 13.0307L21.5278 13.0112C21.097 12.4779 20.5787 12.0217 19.9949 11.6622L19.8264 11.5584C18.908 11.1405 17.9152 10.9112 16.9066 10.8842Z" fill="white"/>
<path d="M16.1092 18.2973L15.5297 18.5947L15.7933 19.0333C16.0627 19.4813 16.3926 19.8899 16.7738 20.2476L17.2366 20.6012C17.5063 20.7738 17.8019 20.9021 18.1122 20.9809L18.2347 21.012C18.6261 21.1115 19.031 21.147 19.4337 21.1172L19.5784 21.1065C19.7155 21.0963 19.8518 21.0764 19.986 21.0468C20.2917 20.9795 20.5844 20.863 20.8526 20.7017L21.5508 20.2819L20.9364 19.3897C20.6914 19.0341 20.3856 18.7247 20.0329 18.4757C19.8091 18.3177 19.5683 18.1853 19.315 18.081L19.3004 18.075C18.9018 17.9109 18.4781 17.8158 18.0476 17.7938L17.9233 17.7875C17.2906 17.8343 16.6737 18.0077 16.1092 18.2973Z" fill="white"/>
<path d="M35.9268 27.0444L36.2891 26.5029L35.8456 26.2476C35.3926 25.9867 34.9058 25.7897 34.3989 25.6621L33.8226 25.5778C33.503 25.5578 33.1823 25.5892 32.8727 25.671L32.7506 25.7033C32.3601 25.8064 31.9889 25.972 31.6513 26.1936L31.53 26.2732C31.4151 26.3486 31.3057 26.4322 31.2027 26.5233C30.9681 26.7305 30.7689 26.9746 30.6127 27.2458L30.2061 27.9518L31.1765 28.4334C31.5633 28.6253 31.981 28.7473 32.4102 28.7937C32.6826 28.8231 32.9574 28.8219 33.2294 28.7901L33.2451 28.7883C33.6732 28.7382 34.0898 28.6156 34.4768 28.4257L34.5886 28.3709C35.119 28.0228 35.574 27.5717 35.9268 27.0444Z" fill="white"/>
</svg>
